<svg width="141" height="49" viewBox="0 0 141 49" fill="none" xmlns="http://www.w3.org/2000/svg">
<g id="Logo">
<path id="Futureniture" d="M3.216 24C2.832 24 2.52 23.888 2.28 23.664C2.056 23.424 1.944 23.128 1.944 22.776V8.424C1.944 8.072 2.064 7.784 2.304 7.56C2.544 7.32 2.832 7.2 3.168 7.2H11.28C11.632 7.2 11.92 7.312 12.144 7.536C12.384 7.76 12.504 8.04 12.504 8.376C12.504 8.68 12.384 8.944 12.144 9.168C11.92 9.392 11.632 9.504 11.28 9.504H4.272L4.44 9.264V14.616L4.296 14.328H10.2C10.552 14.328 10.84 14.44 11.064 14.664C11.304 14.888 11.424 15.168 11.424 15.504C11.424 15.808 11.304 16.072 11.064 16.296C10.84 16.52 10.552 16.632 10.2 16.632H4.248L4.44 16.44V22.776C4.44 23.128 4.32 23.424 4.08 23.664C3.84 23.888 3.552 24 3.216 24ZM24.2599 11.376C24.5959 11.376 24.8759 11.496 25.0999 11.736C25.3399 11.96 25.4599 12.248 25.4599 12.6V18.912C25.4599 20.576 24.9959 21.88 24.0679 22.824C23.1399 23.752 21.8279 24.216 20.1319 24.216C18.4519 24.216 17.1479 23.752 16.2199 22.824C15.3079 21.88 14.8519 20.576 14.8519 18.912V12.6C14.8519 12.248 14.9639 11.96 15.1879 11.736C15.4119 11.496 15.6999 11.376 16.0519 11.376C16.3879 11.376 16.6679 11.496 16.8919 11.736C17.1319 11.96 17.2519 12.248 17.2519 12.6V18.912C17.2519 19.952 17.4919 20.728 17.9719 21.24C18.4679 21.752 19.1879 22.008 20.1319 22.008C21.0919 22.008 21.8199 21.752 22.3159 21.24C22.8119 20.728 23.0599 19.952 23.0599 18.912V12.6C23.0599 12.248 23.1719 11.96 23.3959 11.736C23.6199 11.496 23.9079 11.376 24.2599 11.376ZM28.6292 11.52H34.2692C34.5892 11.52 34.8532 11.632 35.0612 11.856C35.2852 12.064 35.3972 12.328 35.3972 12.648C35.3972 12.952 35.2852 13.208 35.0612 13.416C34.8532 13.624 34.5892 13.728 34.2692 13.728H28.6292C28.3092 13.728 28.0372 13.624 27.8132 13.416C27.6052 13.192 27.5012 12.928 27.5012 12.624C27.5012 12.304 27.6052 12.04 27.8132 11.832C28.0372 11.624 28.3092 11.52 28.6292 11.52ZM31.1492 8.4C31.5012 8.4 31.7892 8.52 32.0132 8.76C32.2372 8.984 32.3492 9.272 32.3492 9.624V20.76C32.3492 21.048 32.3972 21.28 32.4932 21.456C32.5892 21.632 32.7172 21.752 32.8772 21.816C33.0532 21.88 33.2292 21.912 33.4052 21.912C33.5812 21.912 33.7332 21.88 33.8612 21.816C34.0052 21.752 34.1732 21.72 34.3652 21.72C34.5572 21.72 34.7332 21.808 34.8932 21.984C35.0532 22.16 35.1332 22.4 35.1332 22.704C35.1332 23.088 34.9252 23.4 34.5092 23.64C34.0932 23.88 33.6452 24 33.1652 24C32.8932 24 32.5732 23.976 32.2052 23.928C31.8372 23.88 31.4772 23.76 31.1252 23.568C30.7892 23.376 30.5092 23.072 30.2852 22.656C30.0612 22.224 29.9492 21.624 29.9492 20.856V9.624C29.9492 9.272 30.0612 8.984 30.2852 8.76C30.5252 8.52 30.8132 8.4 31.1492 8.4ZM47.463 11.376C47.799 11.376 48.079 11.496 48.303 11.736C48.543 11.96 48.663 12.248 48.663 12.6V18.912C48.663 20.576 48.199 21.88 47.271 22.824C46.343 23.752 45.031 24.216 43.335 24.216C41.655 24.216 40.351 23.752 39.423 22.824C38.511 21.88 38.055 20.576 38.055 18.912V12.6C38.055 12.248 38.167 11.96 38.391 11.736C38.615 11.496 38.903 11.376 39.255 11.376C39.591 11.376 39.871 11.496 40.095 11.736C40.335 11.96 40.455 12.248 40.455 12.6V18.912C40.455 19.952 40.695 20.728 41.175 21.24C41.671 21.752 42.391 22.008 43.335 22.008C44.295 22.008 45.023 21.752 45.519 21.24C46.015 20.728 46.263 19.952 46.263 18.912V12.6C46.263 12.248 46.375 11.96 46.599 11.736C46.823 11.496 47.111 11.376 47.463 11.376ZM53.2003 24C52.8483 24 52.5603 23.888 52.3363 23.664C52.1123 23.424 52.0003 23.128 52.0003 22.776V12.6C52.0003 12.248 52.1123 11.96 52.3363 11.736C52.5603 11.496 52.8483 11.376 53.2003 11.376C53.5363 11.376 53.8163 11.496 54.0403 11.736C54.2803 11.96 54.4003 12.248 54.4003 12.6V15.288L54.1603 14.256C54.2883 13.808 54.4803 13.392 54.7363 13.008C55.0083 12.624 55.3283 12.288 55.6963 12C56.0643 11.712 56.4723 11.488 56.9203 11.328C57.3843 11.168 57.8643 11.088 58.3603 11.088C58.7763 11.088 59.1363 11.2 59.4403 11.424C59.7443 11.648 59.8963 11.928 59.8963 12.264C59.8963 12.696 59.7843 13.016 59.5603 13.224C59.3363 13.416 59.0883 13.512 58.8163 13.512C58.5763 13.512 58.3443 13.464 58.1203 13.368C57.8963 13.256 57.6323 13.2 57.3283 13.2C56.9923 13.2 56.6483 13.288 56.2963 13.464C55.9443 13.64 55.6243 13.904 55.3363 14.256C55.0483 14.592 54.8163 14.992 54.6403 15.456C54.4803 15.92 54.4003 16.44 54.4003 17.016V22.776C54.4003 23.128 54.2803 23.424 54.0403 23.664C53.8163 23.888 53.5363 24 53.2003 24ZM67.3725 24.24C66.0445 24.24 64.8925 23.968 63.9165 23.424C62.9405 22.864 62.1805 22.104 61.6365 21.144C61.1085 20.168 60.8445 19.056 60.8445 17.808C60.8445 16.4 61.1245 15.2 61.6845 14.208C62.2605 13.2 63.0045 12.432 63.9165 11.904C64.8285 11.36 65.7965 11.088 66.8205 11.088C67.6045 11.088 68.3485 11.248 69.0525 11.568C69.7565 11.872 70.3805 12.304 70.9245 12.864C71.4845 13.408 71.9245 14.056 72.2445 14.808C72.5645 15.544 72.7325 16.352 72.7485 17.232C72.7325 17.552 72.6045 17.816 72.3645 18.024C72.1245 18.232 71.8445 18.336 71.5245 18.336H62.1885L61.6125 16.296H70.6365L70.1805 16.728V16.128C70.1485 15.568 69.9645 15.08 69.6285 14.664C69.2925 14.232 68.8765 13.904 68.3805 13.68C67.8845 13.44 67.3645 13.32 66.8205 13.32C66.3405 13.32 65.8765 13.4 65.4285 13.56C64.9965 13.704 64.6045 13.944 64.2525 14.28C63.9165 14.616 63.6445 15.064 63.4365 15.624C63.2445 16.168 63.1485 16.848 63.1485 17.664C63.1485 18.544 63.3325 19.312 63.7005 19.968C64.0685 20.624 64.5645 21.136 65.1885 21.504C65.8125 21.856 66.5005 22.032 67.2525 22.032C67.8445 22.032 68.3325 21.976 68.7165 21.864C69.1005 21.736 69.4205 21.584 69.6765 21.408C69.9325 21.232 70.1565 21.064 70.3485 20.904C70.5885 20.76 70.8285 20.688 71.0685 20.688C71.3565 20.688 71.5965 20.792 71.7885 21C71.9805 21.192 72.0765 21.424 72.0765 21.696C72.0765 22.048 71.9005 22.368 71.5485 22.656C71.1165 23.072 70.5165 23.44 69.7485 23.76C68.9965 24.08 68.2045 24.24 67.3725 24.24ZM81.9653 11.088C83.1013 11.088 83.9813 11.328 84.6053 11.808C85.2293 12.272 85.6613 12.904 85.9012 13.704C86.1573 14.488 86.2853 15.368 86.2853 16.344V22.776C86.2853 23.128 86.1653 23.424 85.9253 23.664C85.7013 23.888 85.4213 24 85.0853 24C84.7333 24 84.4453 23.888 84.2213 23.664C83.9973 23.424 83.8853 23.128 83.8853 22.776V16.368C83.8853 15.792 83.8053 15.28 83.6453 14.832C83.4853 14.368 83.2053 14 82.8053 13.728C82.4213 13.44 81.8773 13.296 81.1733 13.296C80.5173 13.296 79.9413 13.44 79.4453 13.728C78.9493 14 78.5573 14.368 78.2693 14.832C77.9973 15.28 77.8613 15.792 77.8613 16.368V22.776C77.8613 23.128 77.7413 23.424 77.5013 23.664C77.2773 23.888 76.9973 24 76.6613 24C76.3093 24 76.0213 23.888 75.7973 23.664C75.5733 23.424 75.4613 23.128 75.4613 22.776V12.6C75.4613 12.248 75.5733 11.96 75.7973 11.736C76.0213 11.496 76.3093 11.376 76.6613 11.376C76.9973 11.376 77.2773 11.496 77.5013 11.736C77.7413 11.96 77.8613 12.248 77.8613 12.6V13.944L77.4293 14.184C77.5413 13.832 77.7333 13.48 78.0053 13.128C78.2933 12.76 78.6373 12.424 79.0373 12.12C79.4373 11.8 79.8853 11.552 80.3813 11.376C80.8773 11.184 81.4053 11.088 81.9653 11.088ZM91.8735 22.776C91.8735 23.128 91.7615 23.424 91.5375 23.664C91.3135 23.888 91.0255 24 90.6735 24C90.3375 24 90.0495 23.888 89.8095 23.664C89.5855 23.424 89.4735 23.128 89.4735 22.776V12.504C89.4735 12.152 89.5855 11.864 89.8095 11.64C90.0495 11.4 90.3375 11.28 90.6735 11.28C91.0255 11.28 91.3135 11.4 91.5375 11.64C91.7615 11.864 91.8735 12.152 91.8735 12.504V22.776ZM90.6495 9.696C90.1855 9.696 89.8495 9.616 89.6415 9.456C89.4335 9.28 89.3295 8.992 89.3295 8.592V8.208C89.3295 7.808 89.4415 7.528 89.6655 7.368C89.8895 7.208 90.2255 7.128 90.6735 7.128C91.1535 7.128 91.4975 7.216 91.7055 7.392C91.9135 7.552 92.0175 7.824 92.0175 8.208V8.592C92.0175 9.008 91.9055 9.296 91.6815 9.456C91.4735 9.616 91.1295 9.696 90.6495 9.696ZM94.9339 11.52H100.574C100.894 11.52 101.158 11.632 101.366 11.856C101.59 12.064 101.702 12.328 101.702 12.648C101.702 12.952 101.59 13.208 101.366 13.416C101.158 13.624 100.894 13.728 100.574 13.728H94.9339C94.6139 13.728 94.3419 13.624 94.1179 13.416C93.9099 13.192 93.8059 12.928 93.8059 12.624C93.8059 12.304 93.9099 12.04 94.1179 11.832C94.3419 11.624 94.6139 11.52 94.9339 11.52ZM97.4539 8.4C97.8059 8.4 98.0939 8.52 98.3179 8.76C98.5419 8.984 98.6539 9.272 98.6539 9.624V20.76C98.6539 21.048 98.7019 21.28 98.7979 21.456C98.8939 21.632 99.0219 21.752 99.1819 21.816C99.3579 21.88 99.5339 21.912 99.7099 21.912C99.8859 21.912 100.038 21.88 100.166 21.816C100.31 21.752 100.478 21.72 100.67 21.72C100.862 21.72 101.038 21.808 101.198 21.984C101.358 22.16 101.438 22.4 101.438 22.704C101.438 23.088 101.23 23.4 100.814 23.64C100.398 23.88 99.9499 24 99.4699 24C99.1979 24 98.8779 23.976 98.5099 23.928C98.1419 23.88 97.7819 23.76 97.4299 23.568C97.0939 23.376 96.8139 23.072 96.5899 22.656C96.3659 22.224 96.2539 21.624 96.2539 20.856V9.624C96.2539 9.272 96.3659 8.984 96.5899 8.76C96.8299 8.52 97.1179 8.4 97.4539 8.4ZM113.768 11.376C114.104 11.376 114.384 11.496 114.608 11.736C114.848 11.96 114.968 12.248 114.968 12.6V18.912C114.968 20.576 114.504 21.88 113.576 22.824C112.648 23.752 111.336 24.216 109.64 24.216C107.96 24.216 106.656 23.752 105.728 22.824C104.816 21.88 104.36 20.576 104.36 18.912V12.6C104.36 12.248 104.472 11.96 104.696 11.736C104.92 11.496 105.208 11.376 105.56 11.376C105.896 11.376 106.176 11.496 106.4 11.736C106.64 11.96 106.76 12.248 106.76 12.6V18.912C106.76 19.952 107 20.728 107.48 21.24C107.976 21.752 108.696 22.008 109.64 22.008C110.6 22.008 111.328 21.752 111.824 21.24C112.32 20.728 112.568 19.952 112.568 18.912V12.6C112.568 12.248 112.68 11.96 112.904 11.736C113.128 11.496 113.416 11.376 113.768 11.376ZM119.505 24C119.153 24 118.865 23.888 118.641 23.664C118.417 23.424 118.305 23.128 118.305 22.776V12.6C118.305 12.248 118.417 11.96 118.641 11.736C118.865 11.496 119.153 11.376 119.505 11.376C119.841 11.376 120.121 11.496 120.345 11.736C120.585 11.96 120.705 12.248 120.705 12.6V15.288L120.465 14.256C120.593 13.808 120.785 13.392 121.041 13.008C121.313 12.624 121.633 12.288 122.001 12C122.369 11.712 122.777 11.488 123.225 11.328C123.689 11.168 124.169 11.088 124.665 11.088C125.081 11.088 125.441 11.2 125.745 11.424C126.049 11.648 126.201 11.928 126.201 12.264C126.201 12.696 126.089 13.016 125.865 13.224C125.641 13.416 125.393 13.512 125.121 13.512C124.881 13.512 124.649 13.464 124.425 13.368C124.201 13.256 123.937 13.2 123.633 13.2C123.297 13.2 122.953 13.288 122.601 13.464C122.249 13.64 121.929 13.904 121.641 14.256C121.353 14.592 121.121 14.992 120.945 15.456C120.785 15.92 120.705 16.44 120.705 17.016V22.776C120.705 23.128 120.585 23.424 120.345 23.664C120.121 23.888 119.841 24 119.505 24ZM133.677 24.24C132.349 24.24 131.197 23.968 130.221 23.424C129.245 22.864 128.485 22.104 127.941 21.144C127.413 20.168 127.149 19.056 127.149 17.808C127.149 16.4 127.429 15.2 127.989 14.208C128.565 13.2 129.309 12.432 130.221 11.904C131.133 11.36 132.101 11.088 133.125 11.088C133.909 11.088 134.653 11.248 135.357 11.568C136.061 11.872 136.685 12.304 137.229 12.864C137.789 13.408 138.229 14.056 138.549 14.808C138.869 15.544 139.037 16.352 139.053 17.232C139.037 17.552 138.909 17.816 138.669 18.024C138.429 18.232 138.149 18.336 137.829 18.336H128.493L127.917 16.296H136.941L136.485 16.728V16.128C136.453 15.568 136.269 15.08 135.933 14.664C135.597 14.232 135.181 13.904 134.685 13.68C134.189 13.44 133.669 13.32 133.125 13.32C132.645 13.32 132.181 13.4 131.733 13.56C131.301 13.704 130.909 13.944 130.557 14.28C130.221 14.616 129.949 15.064 129.741 15.624C129.549 16.168 129.453 16.848 129.453 17.664C129.453 18.544 129.637 19.312 130.005 19.968C130.373 20.624 130.869 21.136 131.493 21.504C132.117 21.856 132.805 22.032 133.557 22.032C134.149 22.032 134.637 21.976 135.021 21.864C135.405 21.736 135.725 21.584 135.981 21.408C136.237 21.232 136.461 21.064 136.653 20.904C136.893 20.76 137.133 20.688 137.373 20.688C137.661 20.688 137.901 20.792 138.093 21C138.285 21.192 138.381 21.424 138.381 21.696C138.381 22.048 138.205 22.368 137.853 22.656C137.421 23.072 136.821 23.44 136.053 23.76C135.301 24.08 134.509 24.24 133.677 24.24Z" fill="white"/>
<rect id="logo-line" y="32" width="103" height="7" rx="3.5" fill="white"/>
<rect id="logo-line-2" y="42" width="58" height="7" rx="3.5" fill="white"/>
</g>
</svg>
