<svg width="38" height="38" viewBox="0 0 38 38" fill="none" xmlns="http://www.w3.org/2000/svg">
<g clip-path="url(#clip0_1_76)">
<path fill-rule="evenodd" clip-rule="evenodd" d="M25.1655 5.62559L27.8952 11.0833H31.6667C32.5065 11.0833 33.312 11.417 33.9059 12.0108C34.4997 12.6047 34.8334 13.4101 34.8334 14.25V15.8333C34.8335 16.4369 34.6611 17.0279 34.3365 17.5367C34.012 18.0456 33.5488 18.4511 33.0014 18.7055L30.5964 29.5308C30.3619 30.5856 29.7748 31.5289 28.9319 32.2051C28.0891 32.8812 27.0409 33.2498 25.9604 33.25H12.0397C10.9589 33.2497 9.91056 32.8809 9.06769 32.2044C8.22483 31.528 7.63785 30.5843 7.40369 29.5292L4.99702 18.7055C4.45 18.4509 3.98712 18.0453 3.66285 17.5364C3.33859 17.0276 3.16644 16.4367 3.16669 15.8333V14.25C3.16669 13.4101 3.50032 12.6047 4.09418 12.0108C4.68805 11.417 5.4935 11.0833 6.33335 11.0833H10.1049L12.8345 5.62559C13.0298 5.26343 13.3584 4.99152 13.7507 4.86746C14.143 4.74339 14.5682 4.77692 14.9362 4.96092C15.3042 5.14493 15.5862 5.46497 15.7223 5.85325C15.8584 6.24154 15.8381 6.66756 15.6655 7.04109L13.6452 11.0833H24.3549L22.3345 7.04109C22.2339 6.85445 22.1717 6.6495 22.1518 6.43839C22.1319 6.22728 22.1546 6.01432 22.2185 5.81215C22.2824 5.60997 22.3863 5.4227 22.524 5.26144C22.6617 5.10018 22.8304 4.96822 23.0201 4.87339C23.2097 4.77857 23.4165 4.7228 23.6281 4.7094C23.8397 4.696 24.0519 4.72525 24.252 4.79541C24.4521 4.86556 24.6361 4.97519 24.793 5.1178C24.9499 5.26041 25.0766 5.43309 25.1655 5.62559ZM29.6939 19H8.30619L10.4928 28.8436C10.5709 29.1952 10.7666 29.5096 11.0476 29.735C11.3285 29.9604 11.6779 30.0833 12.0381 30.0833H25.9588C26.319 30.0833 26.6684 29.9604 26.9493 29.735C27.2302 29.5096 27.4259 29.1952 27.5041 28.8436L29.6939 19ZM31.6667 14.25H6.33335V15.8333H31.6667V14.25Z" fill="white"/>
</g>
<defs>
<clipPath id="clip0_1_76">
<rect width="38" height="38" fill="white"/>
</clipPath>
</defs>
</svg>
