<svg width="38" height="38" viewBox="0 0 38 38" fill="none" xmlns="http://www.w3.org/2000/svg">
<path fill-rule="evenodd" clip-rule="evenodd" d="M7.09333 2.53333H6.96666C6.38653 2.53333 5.88746 2.53333 5.44666 2.63719C4.76427 2.80025 4.14035 3.14904 3.64402 3.64492C3.14769 4.14081 2.79833 4.76442 2.63466 5.44666C2.53333 5.88746 2.53333 6.38399 2.53333 6.96666V13.3C2.53333 13.8801 2.53333 14.3792 2.63719 14.82C2.80025 15.5024 3.14904 16.1263 3.64492 16.6226C4.14081 17.119 4.76442 17.4683 5.44666 17.632C5.88746 17.7333 6.38399 17.7333 6.96666 17.7333H13.3C13.8801 17.7333 14.3792 17.7333 14.82 17.6295C15.5024 17.4664 16.1263 17.1176 16.6226 16.6217C17.119 16.1258 17.4683 15.5022 17.632 14.82C17.7333 14.3792 17.7333 13.8827 17.7333 13.3V6.96666C17.7333 6.38653 17.7333 5.88746 17.6295 5.44666C17.4664 4.76427 17.1176 4.14035 16.6217 3.64402C16.1258 3.14769 15.5022 2.79833 14.82 2.63466C14.3792 2.53333 13.8827 2.53333 13.3 2.53333H13.1733H7.09333ZM6.03692 5.10212C6.14586 5.07679 6.31559 5.06666 7.09333 5.06666H13.1733C13.9536 5.06666 14.1208 5.07426 14.2297 5.10212C14.4573 5.15654 14.6653 5.27294 14.8308 5.43839C14.9962 5.60384 15.1126 5.81189 15.1671 6.03946C15.1924 6.14586 15.2 6.31306 15.2 7.09333V13.1733C15.2 13.9536 15.1924 14.1208 15.1645 14.2297C15.1101 14.4573 14.9937 14.6653 14.8283 14.8308C14.6628 14.9962 14.4548 15.1126 14.2272 15.1671C14.1233 15.1899 13.9561 15.2 13.1733 15.2H7.09333C6.31306 15.2 6.14586 15.1924 6.03692 15.1645C5.80936 15.1101 5.60131 14.9937 5.43586 14.8283C5.2704 14.6628 5.15401 14.4548 5.09959 14.2272C5.07679 14.1233 5.06666 13.9561 5.06666 13.1733V7.09333C5.06666 6.31306 5.07426 6.14586 5.10212 6.03692C5.15654 5.80936 5.27294 5.60131 5.43839 5.43586C5.60384 5.2704 5.81189 5.15401 6.03946 5.09959M24.8267 2.53333H24.7C24.1199 2.53333 23.6208 2.53333 23.18 2.63719C22.4976 2.80025 21.8737 3.14904 21.3773 3.64492C20.881 4.14081 20.5317 4.76442 20.368 5.44666C20.2667 5.88746 20.2667 6.38399 20.2667 6.96666V13.3C20.2667 13.8801 20.2667 14.3792 20.3705 14.82C20.5336 15.5024 20.8824 16.1263 21.3783 16.6226C21.8741 17.119 22.4977 17.4683 23.18 17.632C23.6208 17.7333 24.1173 17.7333 24.7 17.7333H31.0333C31.6135 17.7333 32.1125 17.7333 32.5533 17.6295C33.2357 17.4664 33.8596 17.1176 34.356 16.6217C34.8523 16.1258 35.2017 15.5022 35.3653 14.82C35.4667 14.3792 35.4667 13.8827 35.4667 13.3V6.96666C35.4667 6.38653 35.4667 5.88746 35.3628 5.44666C35.1997 4.76427 34.8509 4.14035 34.3551 3.64402C33.8592 3.14769 33.2356 2.79833 32.5533 2.63466C32.1125 2.53333 31.616 2.53333 31.0333 2.53333H30.9067H24.8267ZM23.7703 5.10212C23.8792 5.07679 24.0489 5.06666 24.8267 5.06666H30.9067C31.6869 5.06666 31.8541 5.07426 31.9631 5.10212C32.1906 5.15654 32.3987 5.27294 32.5641 5.43839C32.7296 5.60384 32.846 5.81189 32.9004 6.03946C32.9257 6.14586 32.9333 6.31306 32.9333 7.09333V13.1733C32.9333 13.9536 32.9232 14.1208 32.8979 14.2297C32.8434 14.4573 32.727 14.6653 32.5616 14.8308C32.3961 14.9962 32.1881 15.1126 31.9605 15.1671C31.8541 15.1924 31.6869 15.2 30.9067 15.2H24.8267C24.0464 15.2 23.8792 15.1924 23.7703 15.1645C23.5427 15.1101 23.3346 14.9937 23.1692 14.8283C23.0037 14.6628 22.8873 14.4548 22.8329 14.2272C22.8101 14.1233 22.8 13.9561 22.8 13.1733V7.09333C22.8 6.31306 22.8076 6.14586 22.8355 6.03692C22.8899 5.80936 23.0063 5.60131 23.1717 5.43586C23.3372 5.2704 23.5452 5.15401 23.7728 5.09959M6.96666 20.2667H13.3C13.8801 20.2667 14.3792 20.2667 14.82 20.3705C15.5024 20.5336 16.1263 20.8824 16.6226 21.3783C17.119 21.8741 17.4683 22.4977 17.632 23.18C17.7333 23.6208 17.7333 24.1173 17.7333 24.7V31.0333C17.7333 31.6135 17.7333 32.1125 17.6295 32.5533C17.4664 33.2357 17.1176 33.8596 16.6217 34.356C16.1258 34.8523 15.5022 35.2017 14.82 35.3653C14.3792 35.4667 13.8827 35.4667 13.3 35.4667H6.96666C6.38653 35.4667 5.88746 35.4667 5.44666 35.3628C4.76427 35.1997 4.14035 34.8509 3.64402 34.3551C3.14769 33.8592 2.79833 33.2356 2.63466 32.5533C2.53333 32.1125 2.53333 31.616 2.53333 31.0333V24.7C2.53333 24.1199 2.53333 23.6208 2.63719 23.18C2.80025 22.4976 3.14904 21.8737 3.64492 21.3773C4.14081 20.881 4.76442 20.5317 5.44666 20.368C5.88746 20.2667 6.38399 20.2667 6.96666 20.2667ZM7.09333 22.8C6.31306 22.8 6.14586 22.8076 6.03692 22.8355C5.80936 22.8899 5.60131 23.0063 5.43586 23.1717C5.2704 23.3372 5.15401 23.5452 5.09959 23.7728C5.07679 23.8767 5.06666 24.0439 5.06666 24.8267V30.9067C5.06666 31.6869 5.07426 31.8541 5.10212 31.9631C5.15654 32.1906 5.27294 32.3987 5.43839 32.5641C5.60384 32.7296 5.81189 32.846 6.03946 32.9004C6.14586 32.9257 6.31306 32.9333 7.09333 32.9333H13.1733C13.9536 32.9333 14.1208 32.9232 14.2297 32.8979C14.4573 32.8434 14.6653 32.727 14.8308 32.5616C14.9962 32.3961 15.1126 32.1881 15.1671 31.9605C15.1924 31.8541 15.2 31.6869 15.2 30.9067V24.8267C15.2 24.0464 15.1924 23.8792 15.1645 23.7703C15.1101 23.5427 14.9937 23.3346 14.8283 23.1692C14.6628 23.0037 14.4548 22.8873 14.2272 22.8329C14.1233 22.8101 13.9561 22.8 13.1733 22.8H7.09333ZM24.8267 20.2667H24.7C24.1199 20.2667 23.6208 20.2667 23.18 20.3705C22.4976 20.5336 21.8737 20.8824 21.3773 21.3783C20.881 21.8741 20.5317 22.4977 20.368 23.18C20.2667 23.6208 20.2667 24.1173 20.2667 24.7V31.0333C20.2667 31.6135 20.2667 32.1125 20.3705 32.5533C20.5336 33.2357 20.8824 33.8596 21.3783 34.356C21.8741 34.8523 22.4977 35.2017 23.18 35.3653C23.6208 35.4692 24.1199 35.4692 24.7 35.4692H31.0333C31.6135 35.4692 32.1125 35.4692 32.5533 35.3653C33.2352 35.2019 33.8586 34.8529 34.3545 34.357C34.8503 33.8612 35.1993 33.2378 35.3628 32.5559C35.4667 32.1151 35.4667 31.616 35.4667 31.0359V24.7C35.4667 24.1199 35.4667 23.6208 35.3628 23.18C35.1997 22.4976 34.8509 21.8737 34.3551 21.3773C33.8592 20.881 33.2356 20.5317 32.5533 20.368C32.1125 20.2667 31.616 20.2667 31.0333 20.2667H30.9067H24.8267ZM23.7703 22.8355C23.8792 22.8101 24.0489 22.8 24.8267 22.8H30.9067C31.6869 22.8 31.8541 22.8076 31.9631 22.8355C32.1906 22.8899 32.3987 23.0063 32.5641 23.1717C32.7296 23.3372 32.846 23.5452 32.9004 23.7728C32.9257 23.8792 32.9333 24.0464 32.9333 24.8267V30.9067C32.9333 31.6869 32.9232 31.8541 32.8979 31.9631C32.8434 32.1906 32.727 32.3987 32.5616 32.5641C32.3961 32.7296 32.1881 32.846 31.9605 32.9004C31.8541 32.9257 31.6869 32.9333 30.9067 32.9333H24.8267C24.0464 32.9333 23.8792 32.9232 23.7703 32.8979C23.5427 32.8434 23.3346 32.727 23.1692 32.5616C23.0037 32.3961 22.8873 32.1881 22.8329 31.9605C22.8101 31.8567 22.8 31.6895 22.8 30.9067V24.8267C22.8 24.0464 22.8076 23.8792 22.8355 23.7703C22.8899 23.5427 23.0063 23.3346 23.1717 23.1692C23.3372 23.0037 23.5452 22.8873 23.7728 22.8329" fill="#222222"/>
</svg>
