<svg width="38" height="38" viewBox="0 0 38 38" fill="none" xmlns="http://www.w3.org/2000/svg">
<path d="M26.4219 4.75C23.3566 4.75 20.6729 6.06812 19 8.29617C17.3271 6.06812 14.6434 4.75 11.5781 4.75C9.13815 4.75275 6.7989 5.72325 5.07357 7.44857C3.34825 9.1739 2.37775 11.5131 2.375 13.9531C2.375 24.3438 17.7813 32.7542 18.4374 33.1016C18.6103 33.1946 18.8036 33.2433 19 33.2433C19.1964 33.2433 19.3897 33.1946 19.5626 33.1016C20.2187 32.7542 35.625 24.3438 35.625 13.9531C35.6222 11.5131 34.6518 9.1739 32.9264 7.44857C31.2011 5.72325 28.8619 4.75275 26.4219 4.75ZM19 30.6969C16.2895 29.1175 4.75 21.9227 4.75 13.9531C4.75236 12.1429 5.4725 10.4075 6.75251 9.12751C8.03253 7.8475 9.76792 7.12736 11.5781 7.125C14.4652 7.125 16.8892 8.66281 17.9016 11.1328C17.991 11.3506 18.1432 11.5369 18.3388 11.668C18.5344 11.7991 18.7645 11.8691 19 11.8691C19.2355 11.8691 19.4656 11.7991 19.6612 11.668C19.8568 11.5369 20.009 11.3506 20.0984 11.1328C21.1108 8.65836 23.5348 7.125 26.4219 7.125C28.2321 7.12736 29.9675 7.8475 31.2475 9.12751C32.5275 10.4075 33.2476 12.1429 33.25 13.9531C33.25 21.9109 21.7075 29.116 19 30.6969Z" fill="white"/>
</svg>
