<svg width="20" height="20" viewBox="0 0 20 20" fill="none" xmlns="http://www.w3.org/2000/svg">
<g clip-path="url(#clip0_1_9)">
<path d="M6.86915 6.11666L1.55249 6.8875L1.45832 6.90666C1.31577 6.94451 1.18582 7.0195 1.08173 7.124C0.977646 7.22849 0.903158 7.35874 0.865873 7.50143C0.828589 7.64413 0.829844 7.79417 0.869511 7.93622C0.909178 8.07828 0.985835 8.20726 1.09165 8.31L4.94332 12.0592L4.03499 17.355L4.02415 17.4467C4.01543 17.5941 4.04604 17.7412 4.11286 17.8729C4.17968 18.0046 4.28031 18.1162 4.40443 18.1963C4.52856 18.2763 4.67173 18.3219 4.81928 18.3284C4.96683 18.3349 5.11346 18.3021 5.24415 18.2333L9.99915 15.7333L14.7433 18.2333L14.8267 18.2717C14.9642 18.3258 15.1137 18.3425 15.2598 18.3198C15.4059 18.2971 15.5433 18.236 15.658 18.1427C15.7727 18.0494 15.8604 17.9273 15.9123 17.7889C15.9642 17.6504 15.9784 17.5007 15.9533 17.355L15.0442 12.0592L18.8975 8.30916L18.9625 8.23833C19.0553 8.12397 19.1162 7.98704 19.1389 7.84149C19.1616 7.69594 19.1453 7.54698 19.0917 7.40977C19.0381 7.27257 18.9491 7.15202 18.8337 7.06042C18.7184 6.96883 18.5808 6.90944 18.435 6.88833L13.1183 6.11666L10.7417 1.3C10.6729 1.16044 10.5664 1.04293 10.4343 0.96075C10.3022 0.878575 10.1497 0.835022 9.99415 0.835022C9.83858 0.835022 9.6861 0.878575 9.554 0.96075C9.42189 1.04293 9.31542 1.16044 9.24665 1.3L6.86915 6.11666Z" fill="white"/>
</g>
<defs>
<clipPath id="clip0_1_9">
<rect width="20" height="20" fill="white"/>
</clipPath>
</defs>
</svg>
